<?xml version="1.0" encoding="UTF-8" standalone="no"?>
<!-- Created with Inkscape (http://www.inkscape.org/) -->
<svg
   xmlns:dc="http://purl.org/dc/elements/1.1/"
   xmlns:cc="http://web.resource.org/cc/"
   xmlns:rdf="http://www.w3.org/1999/02/22-rdf-syntax-ns#"
   xmlns:svg="http://www.w3.org/2000/svg"
   xmlns="http://www.w3.org/2000/svg"
   xmlns:xlink="http://www.w3.org/1999/xlink"
   xmlns:sodipodi="http://sodipodi.sourceforge.net/DTD/sodipodi-0.dtd"
   xmlns:inkscape="http://www.inkscape.org/namespaces/inkscape"
   width="100"
   height="100"
   id="svg-main"
   sodipodi:version="0.32"
   inkscape:version="0.45.1"
   version="1.0"
   sodipodi:docbase="/home/bitlooter/Documents/No more IE hacks/svg/themes/webport"
   sodipodi:docname="mainX9.svg"
   inkscape:output_extension="org.inkscape.output.svg.inkscape"
   onload="startClock()">
  <script
     type="text/ecmascript"
     id="script3">
	
	function gup( name )
	{
	  name = name.replace(/[\[]/,&quot;\\\[&quot;).replace(/[\]]/,&quot;\\\]&quot;);
	  var regexS = &quot;[\\?&amp;]&quot;+name+&quot;=([^&amp;#]*)&quot;;
	  var regex = new RegExp( regexS );
	  var results = regex.exec( window.location.href );
	  if( results == null )
	    return &quot;&quot;;
	  else
	    return results[1];
	}

	  var second_hand;
	  var minute_hand;
	  var hour_hand;
	  
	  var second_hand_shadow;
	  var minute_hand_shadow;
	  var hour_hand_shadow;
          var clockID = 0;
	  
		// please keep these lines on when you copy the source
		// made by: Nicolas - http://www.javascript-page.com

		

		function updateClock() {		

			var tDate = new Date();
			
			//move 6 degrees every second
			second_hand.setAttribute(&quot;transform&quot;, &quot;rotate(&quot;+((6*tDate.getSeconds())-90)+&quot;,50,50)&quot;);
			second_hand_shadow.setAttribute(&quot;transform&quot;, &quot;rotate(&quot;+((6*tDate.getSeconds())-90)+&quot;,50,50)&quot;);
			
			//smooth-out the rotation of the minute hand: rotate .1 of a degree every second
			minute_rotate_angle = ((6*tDate.getMinutes())-90)+(.1*tDate.getSeconds());
			minute_hand.setAttribute(&quot;transform&quot;, &quot;rotate(&quot;+minute_rotate_angle+&quot;,50,50)&quot;);
			minute_hand_shadow.setAttribute(&quot;transform&quot;, &quot;rotate(&quot;+minute_rotate_angle+&quot;,50,50)&quot;);

			//smooth-out the rotation of the hour hand: rotate 0.008333333 of a degree every second
			hour_rotate_angle = ((30*tDate.getHours())-90)+(0.008333333*((tDate.getMinutes()*60)+tDate.getSeconds()));
			hour_hand.setAttribute(&quot;transform&quot;, &quot;rotate(&quot;+hour_rotate_angle+&quot;,50,50)&quot;);
			hour_hand_shadow.setAttribute(&quot;transform&quot;, &quot;rotate(&quot;+hour_rotate_angle+&quot;,50,50)&quot;);
		}

		function setSize(){
		   w = gup('w');
		   h = gup('h');
		   svgNode = document.getElementById('svg-main');
		   width   = Math.round(parseFloat(w)*parseFloat(svgNode.getAttribute('width')));
		   height  = Math.round(parseFloat(h)*parseFloat(svgNode.getAttribute('height')));

		   svgNode.setAttribute('width',width);
		   svgNode.setAttribute('height',height);

		   clock = document.getElementById('clock');
		   clock.setAttribute('transform','scale('+w+','+h+')');
		   //window.alert('width='+width);
		}
		function startClock() {
			setSize();
			var tDate = new Date();
		
			second_hand 	   = document.getElementById('layer-clock-second-hand');
			second_hand_shadow = document.getElementById('layer-clock-second-hand-shadow');

			minute_hand 	   = document.getElementById('layer-clock-minute-hand');
			minute_hand_shadow = document.getElementById('layer-clock-minute-hand-shadow');

			hour_hand 	   = document.getElementById('layer-clock-hour-hand');
			hour_hand_shadow   = document.getElementById('layer-clock-hour-hand-shadow');
			
			//initialize the clock
			second_hand.setAttribute(&quot;transform&quot;, &quot;rotate(&quot;+((6*tDate.getSeconds())-90)+&quot;,50,50)&quot;);
			second_hand_shadow.setAttribute(&quot;transform&quot;, &quot;rotate(&quot;+((6*tDate.getSeconds())-90)+&quot;,50,50)&quot;);
			
			//smooth-out the rotation of the minute hand: rotate .1 of a degree every second
			minute_rotate_angle = ((6*tDate.getMinutes())-90)+(.1*tDate.getSeconds());
			minute_hand.setAttribute(&quot;transform&quot;, &quot;rotate(&quot;+minute_rotate_angle+&quot;,50,50)&quot;);
			minute_hand_shadow.setAttribute(&quot;transform&quot;, &quot;rotate(&quot;+minute_rotate_angle+&quot;,50,50)&quot;);

			//smooth-out the rotation of the hour hand: rotate 0.008333333 of a degree every second
			hour_rotate_angle = ((30*tDate.getHours())-90)+(0.008333333*((tDate.getMinutes()*60)+tDate.getSeconds()));
			hour_hand.setAttribute(&quot;transform&quot;, &quot;rotate(&quot;+hour_rotate_angle+&quot;,50,50)&quot;);
			hour_hand_shadow.setAttribute(&quot;transform&quot;, &quot;rotate(&quot;+hour_rotate_angle+&quot;,50,50)&quot;);

			clockID = window.setInterval(&quot;updateClock()&quot;, 1000);
			
			//make frame dragable
		        //addHandle(document.getElementsByTagName('body').item(0), window);
		}

		function killClock() {
			if(clockID) {
				clearInterval(clockID);
				clockID  = 0;
			}
	   }
	  </script>
<!-- clock-drop-shadow
  <defs
     id="defs-clock-drop-shadow">
    <linearGradient
       id="linearGradient2202">
      <stop
         style="stop-color:#000000;stop-opacity:1;"
         offset="0"
         id="stop2204" />
      <stop
         id="stop2200"
         offset="0.86259544"
         style="stop-color:#000000;stop-opacity:0.49803922;" />
      <stop
         style="stop-color:#000000;stop-opacity:0;"
         offset="1"
         id="stop2206" />
    </linearGradient>
    <radialGradient
       inkscape:collect="always"
       xlink:href="#linearGradient2202"
       id="radialGradient2208"
       cx="29.116467"
       cy="22.941767"
       fx="29.116467"
       fy="22.941767"
       r="19.174698"
       gradientTransform="matrix(0.944994,3.007559e-16,-4.476419e-16,0.65058,1.601592,8.016313)"
       gradientUnits="userSpaceOnUse" />
  </defs>
--><!-- clock-face-->  <defs
     id="defs-clock-face">
    <linearGradient
       id="linearGradient2202">
      <stop
         style="stop-color:#a5adad;stop-opacity:1;"
         offset="0"
         id="stop2204" />
      <stop
         style="stop-color:#e8f4ed;stop-opacity:1;"
         offset="1"
         id="stop2206" />
    </linearGradient>
  </defs>
<!-- clock-marks-->  <defs
     id="defs-clock-marks">
    <linearGradient
       id="linearGradient9">
      <stop
         style="stop-color:#a5adad;stop-opacity:1;"
         offset="0"
         id="stop11" />
      <stop
         style="stop-color:#e8f4ed;stop-opacity:1;"
         offset="1"
         id="stop13" />
    </linearGradient>
    <radialGradient
       r="18.674698"
       fy="34.970802"
       fx="36.742397"
       cy="34.970802"
       cx="36.742397"
       spreadMethod="pad"
       gradientTransform="matrix(0.870075,0.399439,-0.579782,0.584151,18.82517,-15.63019)"
       gradientUnits="userSpaceOnUse"
       id="radialGradient3420"
       xlink:href="#linearGradient3996"
       inkscape:collect="always" />
    <radialGradient
       spreadMethod="pad"
       gradientUnits="userSpaceOnUse"
       gradientTransform="matrix(1.632169,-0.305931,0.464486,1.146224,-28.7086,3.790608)"
       r="18.674698"
       fy="36.912907"
       fx="20.642715"
       cy="36.912907"
       cx="20.642715"
       id="radialGradient3416"
       xlink:href="#linearGradient3996"
       inkscape:collect="always" />
    <linearGradient
       id="linearGradient11624">
      <stop
         id="stop11626"
         offset="0"
         style="stop-color:#a5adad;stop-opacity:1;" />
      <stop
         id="stop11628"
         offset="1"
         style="stop-color:#e8f4ed;stop-opacity:1;" />
    </linearGradient>
    <linearGradient
       id="linearGradient3996">
      <stop
         style="stop-color:#e7e7e7;stop-opacity:1;"
         offset="0"
         id="stop3408" />
      <stop
         style="stop-color:#858585;stop-opacity:1;"
         offset="0.65776199"
         id="stop3406" />
      <stop
         style="stop-color:#aaaaaa;stop-opacity:1;"
         offset="0.85892481"
         id="stop3402" />
      <stop
         id="stop4000"
         offset="1"
         style="stop-color:#efefef;stop-opacity:1;" />
    </linearGradient>
    <linearGradient
       id="linearGradient5754">
      <stop
         id="stop5756"
         offset="0"
         style="stop-color:#858585;stop-opacity:1;" />
      <stop
         style="stop-color:#979797;stop-opacity:1;"
         offset="0.71816796"
         id="stop5762" />
      <stop
         id="stop5764"
         offset="0.94836664"
         style="stop-color:#b3b3b3;stop-opacity:1;" />
      <stop
         id="stop5758"
         offset="1"
         style="stop-color:#f3f3f3;stop-opacity:1;" />
    </linearGradient>
  </defs>
<!-- clock-face-shadow-->  <defs
     id="defs-clock-face-shadow">
    <linearGradient
       id="linearGradient31">
      <stop
         style="stop-color:#ffffff;stop-opacity:0;"
         offset="0"
         id="stop33" />
      <stop
         id="stop2202"
         offset="0.78765059"
         style="stop-color:#7f7f7f;stop-opacity:0.49803922;" />
      <stop
         style="stop-color:#3f3f3f;stop-opacity:0.74901961;"
         offset="0.93802023"
         id="stop2205" />
      <stop
         style="stop-color:#000000;stop-opacity:1;"
         offset="1"
         id="stop37" />
    </linearGradient>
    <radialGradient
       inkscape:collect="always"
       xlink:href="#linearGradient2202"
       id="radialGradient2200"
       cx="28.22608"
       cy="23.644703"
       fx="28.22608"
       fy="23.644703"
       r="18.674698"
       gradientTransform="matrix(1.067943,2.242373e-32,7.881997e-33,0.726316,-1.917757,6.246314)"
       gradientUnits="userSpaceOnUse" />
  </defs>
<!-- clock-glass-->  <defs
     id="defs-clock-glass">
    <linearGradient
       id="linearGradient8221">
      <stop
         style="stop-color:#ebebeb;stop-opacity:0.56716418;"
         offset="0"
         id="stop8223" />
      <stop
         id="stop2235"
         offset="0.64885497"
         style="stop-color:#a6b4f5;stop-opacity:0.2745098;" />
      <stop
         style="stop-color:#627eff;stop-opacity:0;"
         offset="1"
         id="stop8225" />
    </linearGradient>
    <linearGradient
       id="linearGradient8213">
      <stop
         style="stop-color:#000000;stop-opacity:1;"
         offset="0"
         id="stop8215" />
      <stop
         style="stop-color:#000000;stop-opacity:0;"
         offset="1"
         id="stop8217" />
    </linearGradient>
    <linearGradient
       id="linearGradient6441">
      <stop
         style="stop-color:#ffffff;stop-opacity:0.49803922;"
         offset="0"
         id="stop6443" />
      <stop
         style="stop-color:#aacbfb;stop-opacity:0;"
         offset="1"
         id="stop6445" />
    </linearGradient>
    <linearGradient
       id="linearGradient51">
      <stop
         style="stop-color:#a5adad;stop-opacity:1;"
         offset="0"
         id="stop53" />
      <stop
         style="stop-color:#e8f4ed;stop-opacity:1;"
         offset="1"
         id="stop55" />
    </linearGradient>
    <radialGradient
       r="18.674698"
       fy="34.970802"
       fx="36.742397"
       cy="34.970802"
       cx="36.742397"
       spreadMethod="pad"
       gradientTransform="matrix(0.870075,0.399439,-0.579782,0.584151,18.82517,-15.63019)"
       gradientUnits="userSpaceOnUse"
       id="radialGradient57"
       xlink:href="#linearGradient3996"
       inkscape:collect="always" />
    <radialGradient
       spreadMethod="pad"
       gradientUnits="userSpaceOnUse"
       gradientTransform="matrix(1.632169,-0.305931,0.464486,1.146224,-28.7086,3.790608)"
       r="18.674698"
       fy="36.912907"
       fx="20.642715"
       cy="36.912907"
       cx="20.642715"
       id="radialGradient59"
       xlink:href="#linearGradient3996"
       inkscape:collect="always" />
    <linearGradient
       id="linearGradient4673">
      <stop
         id="stop4675"
         offset="0"
         style="stop-color:#a5adad;stop-opacity:1;" />
      <stop
         id="stop4677"
         offset="1"
         style="stop-color:#e8f4ed;stop-opacity:1;" />
    </linearGradient>
    <linearGradient
       id="linearGradient64">
      <stop
         style="stop-color:#e7e7e7;stop-opacity:1;"
         offset="0"
         id="stop66" />
      <stop
         style="stop-color:#858585;stop-opacity:1;"
         offset="0.65776199"
         id="stop68" />
      <stop
         style="stop-color:#aaaaaa;stop-opacity:1;"
         offset="0.85892481"
         id="stop70" />
      <stop
         id="stop72"
         offset="1"
         style="stop-color:#efefef;stop-opacity:1;" />
    </linearGradient>
    <linearGradient
       id="linearGradient74">
      <stop
         id="stop76"
         offset="0"
         style="stop-color:#858585;stop-opacity:1;" />
      <stop
         style="stop-color:#979797;stop-opacity:1;"
         offset="0.71816796"
         id="stop78" />
      <stop
         id="stop80"
         offset="0.94836664"
         style="stop-color:#b3b3b3;stop-opacity:1;" />
      <stop
         id="stop82"
         offset="1"
         style="stop-color:#f3f3f3;stop-opacity:1;" />
    </linearGradient>
    <linearGradient
       inkscape:collect="always"
       xlink:href="#linearGradient6441"
       id="linearGradient6447"
       x1="61.098846"
       y1="88.485313"
       x2="88.955002"
       y2="15.955506"
       gradientUnits="userSpaceOnUse" />
    <linearGradient
       inkscape:collect="always"
       xlink:href="#linearGradient6441"
       id="linearGradient7330"
       x1="44.750446"
       y1="14.00927"
       x2="11.105478"
       y2="81.219353"
       gradientUnits="userSpaceOnUse" />
    <radialGradient
       inkscape:collect="always"
       xlink:href="#linearGradient6441"
       id="radialGradient8211"
       cx="59.197521"
       cy="55.788513"
       fx="59.197521"
       fy="55.788513"
       r="30.86272"
       gradientTransform="matrix(1,0,0,1.107204,0,-5.980748)"
       gradientUnits="userSpaceOnUse" />
    <linearGradient
       inkscape:collect="always"
       xlink:href="#linearGradient8221"
       id="linearGradient8227"
       x1="9.9281883"
       y1="49.916809"
       x2="90.238197"
       y2="49.916809"
       gradientUnits="userSpaceOnUse" />
    <linearGradient
       inkscape:collect="always"
       xlink:href="#linearGradient8221"
       id="linearGradient9109"
       gradientUnits="userSpaceOnUse"
       x1="9.9281883"
       y1="49.916809"
       x2="90.238197"
       y2="49.916809" />
    <linearGradient
       inkscape:collect="always"
       xlink:href="#linearGradient6441"
       id="linearGradient10899"
       gradientUnits="userSpaceOnUse"
       x1="61.098846"
       y1="88.485313"
       x2="88.955002"
       y2="15.955506"
       gradientTransform="translate(-6.667834e-2,6.124778e-3)" />
    <radialGradient
       inkscape:collect="always"
       xlink:href="#linearGradient6441"
       id="radialGradient10901"
       gradientUnits="userSpaceOnUse"
       gradientTransform="matrix(1,0,0,1.107204,-6.667834e-2,-5.974623)"
       cx="59.197521"
       cy="55.788513"
       fx="59.197521"
       fy="55.788513"
       r="30.86272" />
    <radialGradient
       inkscape:collect="always"
       xlink:href="#linearGradient8221"
       id="radialGradient2233"
       cx="50.083191"
       cy="49.916809"
       fx="50.083191"
       fy="49.916809"
       r="40.092503"
       gradientUnits="userSpaceOnUse" />
  </defs>
<!-- clock-frame-->  <defs
     id="defs-clock-frame">
    <linearGradient
       id="linearGradient93">
      <stop
         style="stop-color:#858585;stop-opacity:1;"
         offset="0"
         id="stop95" />
      <stop
         id="stop97"
         offset="0.71816796"
         style="stop-color:#979797;stop-opacity:1;" />
      <stop
         style="stop-color:#b3b3b3;stop-opacity:1;"
         offset="0.94836664"
         id="stop99" />
      <stop
         style="stop-color:#f3f3f3;stop-opacity:1;"
         offset="1"
         id="stop101" />
    </linearGradient>
    <linearGradient
       id="linearGradient103">
      <stop
         id="stop105"
         offset="0"
         style="stop-color:#e7e7e7;stop-opacity:1;" />
      <stop
         id="stop107"
         offset="0.65776199"
         style="stop-color:#858585;stop-opacity:1;" />
      <stop
         id="stop109"
         offset="0.85892481"
         style="stop-color:#aaaaaa;stop-opacity:1;" />
      <stop
         style="stop-color:#efefef;stop-opacity:1;"
         offset="1"
         id="stop111" />
    </linearGradient>
    <linearGradient
       id="linearGradient113">
      <stop
         style="stop-color:#a5adad;stop-opacity:1;"
         offset="0"
         id="stop115" />
      <stop
         style="stop-color:#e8f4ed;stop-opacity:1;"
         offset="1"
         id="stop117" />
    </linearGradient>
    <radialGradient
       inkscape:collect="always"
       xlink:href="#linearGradient3996"
       id="radialGradient119"
       cx="20.642715"
       cy="36.912907"
       fx="20.642715"
       fy="36.912907"
       r="18.674698"
       gradientTransform="matrix(1.632169,-0.305931,0.464486,1.146224,-28.7086,3.790608)"
       gradientUnits="userSpaceOnUse"
       spreadMethod="pad" />
    <radialGradient
       inkscape:collect="always"
       xlink:href="#linearGradient3996"
       id="radialGradient121"
       gradientUnits="userSpaceOnUse"
       gradientTransform="matrix(0.870075,0.399439,-0.579782,0.584151,18.82517,-15.63019)"
       spreadMethod="pad"
       cx="36.742397"
       cy="34.970802"
       fx="36.742397"
       fy="34.970802"
       r="18.674698" />
  </defs>
<!-- clock-hour-hand-shadow-->  <defs
     id="defs-clock-hour-hand-shadow">
    <linearGradient
       id="linearGradient124">
      <stop
         style="stop-color:#a5adad;stop-opacity:1;"
         offset="0"
         id="stop126" />
      <stop
         style="stop-color:#e8f4ed;stop-opacity:1;"
         offset="1"
         id="stop128" />
    </linearGradient>
  </defs>
<!-- clock-hour-hand-->  <defs
     id="defs-clock-hour-hand">
    <linearGradient
       id="linearGradient131">
      <stop
         style="stop-color:#a5adad;stop-opacity:1;"
         offset="0"
         id="stop133" />
      <stop
         style="stop-color:#e8f4ed;stop-opacity:1;"
         offset="1"
         id="stop135" />
    </linearGradient>
  </defs>
<!-- clock-minute-hand-shadow-->  <defs
     id="defs-clock-minute-hand-shadow">
    <linearGradient
       id="linearGradient138">
      <stop
         style="stop-color:#a5adad;stop-opacity:1;"
         offset="0"
         id="stop140" />
      <stop
         style="stop-color:#e8f4ed;stop-opacity:1;"
         offset="1"
         id="stop142" />
    </linearGradient>
  </defs>
<!-- clock-minute-hand-->  <defs
     id="defs-clock-minute-hand">
    <linearGradient
       id="linearGradient145">
      <stop
         style="stop-color:#a5adad;stop-opacity:1;"
         offset="0"
         id="stop147" />
      <stop
         style="stop-color:#e8f4ed;stop-opacity:1;"
         offset="1"
         id="stop149" />
    </linearGradient>
  </defs>
<!-- clock-second-hand-shadow-->  <defs
     id="defs-clock-second-hand-shadow">
    <linearGradient
       id="linearGradient152">
      <stop
         style="stop-color:#a5adad;stop-opacity:1;"
         offset="0"
         id="stop154" />
      <stop
         style="stop-color:#e8f4ed;stop-opacity:1;"
         offset="1"
         id="stop156" />
    </linearGradient>
  </defs>
<!-- clock-second-hand-->  <defs
     id="defs-clock-second-hand">
    <linearGradient
       id="linearGradient159">
      <stop
         style="stop-color:#a5adad;stop-opacity:1;"
         offset="0"
         id="stop161" />
      <stop
         style="stop-color:#e8f4ed;stop-opacity:1;"
         offset="1"
         id="stop163" />
    </linearGradient>
  </defs>
<!--END -->  <sodipodi:namedview
     id="base"
     pagecolor="#ffffff"
     bordercolor="#666666"
     borderopacity="1.0"
     inkscape:pageopacity="0.0"
     inkscape:pageshadow="2"
     inkscape:zoom="4.98"
     inkscape:cx="54.790264"
     inkscape:cy="32.209013"
     inkscape:document-units="px"
     inkscape:current-layer="layer-clock-glass"
     showguides="true"
     inkscape:guide-bbox="true"
     inkscape:window-width="1280"
     inkscape:window-height="725"
     inkscape:window-x="0"
     inkscape:window-y="25">
    <sodipodi:guide
       orientation="horizontal"
       position="50"
       id="guide1307" />
    <sodipodi:guide
       orientation="vertical"
       position="50"
       id="guide1309" />
    <sodipodi:guide
       orientation="horizontal"
       position="100"
       id="guide1311" />
    <sodipodi:guide
       orientation="vertical"
       position="0"
       id="guide1313" />
    <sodipodi:guide
       orientation="vertical"
       position="100"
       id="guide1315" />
    <sodipodi:guide
       orientation="horizontal"
       position="0"
       id="guide1317" />
    <sodipodi:guide
       orientation="horizontal"
       position="90.060241"
       id="guide1319" />
    <sodipodi:guide
       orientation="vertical"
       position="10.040161"
       id="guide1321" />
    <sodipodi:guide
       orientation="vertical"
       position="90.060241"
       id="guide1323" />
    <sodipodi:guide
       orientation="horizontal"
       position="10.040161"
       id="guide1325" />
  </sodipodi:namedview>
  <metadata
     id="metadata7">
    <rdf:RDF>
      <cc:Work
         rdf:about="">
        <dc:format>image/svg+xml</dc:format>
        <dc:type
           rdf:resource="http://purl.org/dc/dcmitype/StillImage" />
      </cc:Work>
    </rdf:RDF>
  </metadata>
<!--                                            CLOCK BEGIN                                                      -->  <g
     id="clock">
<!-- clock-drop-shadow
  <g
     inkscape:label="Ebene 1"
     inkscape:groupmode="layer"
     id="layer-clock-drop-shadow">

  </g>
 --><!-- clock-face-->    <g
       inkscape:label="Ebene 1"
       inkscape:groupmode="layer"
       id="layer-clock-face" />
<!-- clock-marks-->    <g
       inkscape:label="Ebene 1"
       inkscape:groupmode="layer"
       id="layer-clock-marks">
      <path
         transform="scale(0.997935,1.00207)"
         style="font-size:7.73258018px;font-style:normal;font-variant:normal;font-weight:bold;font-stretch:normal;text-align:start;line-height:125%;writing-mode:lr-tb;text-anchor:start;fill:#000000;fill-opacity:1;stroke:none;stroke-width:1px;stroke-linecap:butt;stroke-linejoin:miter;stroke-opacity:1;font-family:Comic Sans MS"
         d="M 68.213551,25.066756 L 66.714609,25.062981 C 66.238873,25.062981 66.001005,24.913212 66.001006,24.613675 C 66.001005,24.276383 66.266561,24.107736 66.797673,24.107735 C 66.848014,24.107736 66.903391,24.108995 66.963803,24.111511 L 66.963803,20.762488 C 66.744812,20.913519 66.602595,20.989033 66.537152,20.989028 C 66.396192,20.989033 66.272854,20.93869 66.167136,20.838002 C 66.063933,20.737321 66.012332,20.620275 66.012333,20.486864 C 66.012332,20.348427 66.096656,20.20621 66.265303,20.060213 L 66.691955,19.750607 L 67.152587,19.380591 C 67.341368,19.244673 67.523859,19.176711 67.70006,19.176705 C 67.926597,19.176711 68.039867,19.312635 68.03987,19.584478 C 68.039867,19.88402 68.027282,20.305636 68.002113,20.849329 C 67.976939,21.393029 67.964354,22.169559 67.964357,23.178919 L 67.964357,24.092632 L 68.213551,24.092632 C 68.359541,24.092633 68.481621,24.1392 68.579792,24.232332 C 68.680473,24.325466 68.730815,24.441254 68.730818,24.579694 C 68.730815,24.718136 68.680473,24.833923 68.579792,24.927056 C 68.481621,25.02019 68.359541,25.066756 68.213551,25.066756"
         id="text11636" />
      <path
         transform="scale(0.997935,1.00207)"
         style="font-size:7.73258018px;font-style:normal;font-variant:normal;font-weight:bold;font-stretch:normal;text-align:start;line-height:125%;writing-mode:lr-tb;text-anchor:start;fill:#000000;fill-opacity:1;stroke:none;stroke-width:1px;stroke-linecap:butt;stroke-linejoin:miter;stroke-opacity:1;font-family:Comic Sans MS"
         d="M 80.804826,37.03813 C 80.741895,37.03813 80.643727,37.028061 80.510324,37.007925 C 80.37943,36.985271 80.285039,36.973944 80.227148,36.973944 L 79.1171,36.970168 C 79.021448,36.970168 78.876714,36.982753 78.682898,37.007925 C 78.489078,37.030579 78.343086,37.041906 78.24492,37.041906 C 78.21723,37.041906 78.176956,37.036871 78.124098,37.026803 C 78.071237,37.016734 78.030964,37.0117 78.003276,37.0117 C 77.776735,37.0117 77.623191,36.919826 77.542644,36.736076 C 77.492301,36.620289 77.46713,36.441574 77.467131,36.19993 C 77.46713,35.729231 77.57159,35.335303 77.780512,35.018144 C 77.941606,34.773986 78.202127,34.529826 78.562076,34.285664 C 78.901885,34.061643 79.240437,33.838879 79.577732,33.617369 C 79.975434,33.327905 80.174286,32.999421 80.174289,32.631918 C 80.174286,32.536273 80.094997,32.441881 79.936421,32.348743 C 79.77784,32.253097 79.623038,32.205272 79.472014,32.205267 C 79.205197,32.205272 78.922022,32.324835 78.622487,32.563956 C 78.325466,32.800569 78.12158,32.918874 78.010828,32.91887 C 77.87742,32.918874 77.760374,32.886151 77.65969,32.820702 C 77.533834,32.740159 77.470906,32.628147 77.470906,32.484667 C 77.470906,32.331128 77.533834,32.198979 77.65969,32.088221 C 77.96426,31.818895 78.229816,31.62256 78.456357,31.499216 C 78.783581,31.320507 79.122132,31.231149 79.472014,31.231143 C 79.907472,31.231149 80.300141,31.345678 80.650024,31.57473 C 81.050241,31.836515 81.250352,32.178842 81.250356,32.601713 C 81.250352,33.029627 81.152184,33.39335 80.955853,33.692883 C 80.802306,33.932012 80.559404,34.164845 80.227148,34.391383 C 79.912506,34.590237 79.597867,34.787831 79.28323,34.984163 C 78.804976,35.296287 78.54823,35.652459 78.512992,36.052679 C 78.651432,36.03506 78.855318,36.014923 79.124652,35.992268 C 79.660795,35.964581 80.044654,35.950737 80.276232,35.950736 C 80.492701,35.950737 80.706655,35.997304 80.918097,36.090436 C 81.179873,36.206224 81.310762,36.354734 81.310767,36.535965 C 81.310762,36.666856 81.264196,36.781384 81.171067,36.879552 C 81.072895,36.985271 80.950815,37.03813 80.804826,37.03813"
         id="text11640" />
      <path
         transform="scale(0.997935,1.00207)"
         style="font-size:7.73258018px;font-style:normal;font-variant:normal;font-weight:bold;font-stretch:normal;text-align:start;line-height:125%;writing-mode:lr-tb;text-anchor:start;fill:#000000;fill-opacity:1;stroke:none;stroke-width:1px;stroke-linecap:butt;stroke-linejoin:miter;stroke-opacity:1;font-family:Comic Sans MS"
         d="M 85.459127,50.946453 C 85.977649,51.235925 86.236911,51.699073 86.236916,52.335901 C 86.236911,52.849394 86.046869,53.284855 85.666789,53.642285 C 85.286701,53.999715 84.824811,54.17843 84.281117,54.17843 C 83.875859,54.17843 83.510878,54.096624 83.186171,53.933011 C 82.81112,53.741711 82.55815,53.469863 82.427261,53.117466 C 82.407123,53.064607 82.397055,53.007972 82.397055,52.947561 C 82.397055,52.806603 82.45369,52.689558 82.566961,52.596423 C 82.672679,52.510842 82.7935,52.468052 82.929425,52.46805 C 83.088002,52.468052 83.215117,52.530979 83.310768,52.656834 C 83.471862,52.873307 83.564995,52.991611 83.590168,53.011747 C 83.746228,53.137604 83.976544,53.200532 84.281117,53.200531 C 84.52024,53.200532 84.72916,53.128794 84.907878,52.985317 C 85.089108,52.841843 85.179724,52.669421 85.179727,52.46805 C 85.179724,51.84129 84.758107,51.486377 83.914876,51.40331 C 83.544859,51.368073 83.359851,51.213271 83.359852,50.938902 C 83.359851,50.729985 83.503326,50.577699 83.790279,50.482046 C 84.062125,50.421638 84.332715,50.359969 84.602049,50.297038 C 84.77321,50.244182 84.901583,50.174961 84.987168,50.089375 C 85.072746,50.003798 85.116796,49.901854 85.119316,49.783546 C 85.129381,49.4085 84.836138,49.220975 84.239584,49.22097 C 84.043247,49.220975 83.828034,49.296489 83.593944,49.447511 C 83.359851,49.596025 83.200014,49.67028 83.114433,49.670276 C 82.970957,49.67028 82.848877,49.618679 82.748193,49.515473 C 82.647508,49.412276 82.597165,49.29523 82.597166,49.164335 C 82.597165,48.950386 82.808603,48.737689 83.231479,48.526246 C 83.609045,48.337468 83.916133,48.243077 84.152744,48.243071 C 84.724126,48.243077 85.183499,48.366415 85.530865,48.613087 C 85.910945,48.884941 86.100987,49.272576 86.100991,49.775995 C 86.100987,50.052881 86.046869,50.28949 85.938637,50.485821 C 85.832915,50.679642 85.673078,50.833186 85.459127,50.946453"
         id="text11644" />
      <path
         transform="scale(0.997935,1.00207)"
         style="font-size:7.73258018px;font-style:normal;font-variant:normal;font-weight:bold;font-stretch:normal;text-align:start;line-height:125%;writing-mode:lr-tb;text-anchor:start;fill:#000000;fill-opacity:1;stroke:none;stroke-width:1px;stroke-linecap:butt;stroke-linejoin:miter;stroke-opacity:1;font-family:Comic Sans MS"
         d="M 79.866168,69.079975 L 78.359674,69.079975 C 77.551679,69.079976 77.147683,68.915105 77.147683,68.585361 C 77.147683,68.446922 77.218162,68.29212 77.359121,68.120953 C 77.474908,67.990066 77.591953,67.857918 77.710258,67.724508 C 78.115513,67.145575 78.733464,66.284722 79.564114,65.141947 C 79.760447,64.880172 80.015934,64.749283 80.330576,64.749277 C 80.479082,64.749283 80.607455,64.787039 80.715695,64.862547 C 80.844064,64.953169 80.90825,65.080283 80.908254,65.24389 L 80.91203,68.083197 C 81.241768,68.093268 81.462015,68.127249 81.572773,68.18514 C 81.696107,68.253104 81.757776,68.386511 81.757781,68.585361 C 81.760293,68.794284 81.664643,68.937759 81.470829,69.015788 C 81.334901,69.068649 81.148635,69.090045 80.91203,69.079975 C 80.919577,69.442441 80.918319,69.83511 80.908254,70.257985 C 80.905733,70.396427 80.860425,70.510955 80.77233,70.601571 C 80.684227,70.692187 80.564664,70.737495 80.413641,70.737496 C 80.031036,70.737495 79.848545,70.485784 79.866168,69.982361 L 79.866168,69.079975 M 79.866168,66.387919 C 79.622005,66.773042 79.245697,67.338134 78.737242,68.083197 L 79.866168,68.083197 L 79.866168,66.387919"
         id="text11648" />
      <path
         transform="scale(0.997935,1.00207)"
         style="font-size:7.73258018px;font-style:normal;font-variant:normal;font-weight:bold;font-stretch:normal;text-align:start;line-height:125%;writing-mode:lr-tb;text-anchor:start;fill:#000000;fill-opacity:1;stroke:none;stroke-width:1px;stroke-linecap:butt;stroke-linejoin:miter;stroke-opacity:1;font-family:Comic Sans MS"
         d="M 66.867031,83.010016 C 66.096792,83.010015 65.529183,82.73565 65.164202,82.186919 C 65.101273,82.091269 65.06981,81.999394 65.06981,81.911294 C 65.06981,81.775371 65.123927,81.659584 65.232164,81.563932 C 65.340399,81.468283 65.463738,81.420458 65.60218,81.420457 C 65.743137,81.420458 65.863959,81.473318 65.964645,81.579035 C 66.140841,81.762786 66.236492,81.860953 66.251596,81.873538 C 66.400104,81.979257 66.605249,82.032117 66.867031,82.032116 C 67.254664,82.032117 67.578113,81.8899 67.837379,81.605465 C 68.08657,81.331101 68.211167,80.998842 68.211171,80.608687 C 68.211167,80.233639 68.148239,79.952981 68.022387,79.766712 C 67.899045,79.580448 67.71152,79.487315 67.459811,79.487312 C 67.016797,79.487315 66.660625,79.630791 66.391296,79.917739 C 66.285575,80.038563 66.178598,80.158126 66.070363,80.276428 C 65.934438,80.404803 65.789704,80.468989 65.636161,80.468987 C 65.492685,80.468989 65.370605,80.419906 65.269921,80.321736 C 65.171753,80.223571 65.122669,80.107784 65.122669,79.974374 C 65.122669,79.916483 65.144064,79.697494 65.186856,79.317406 C 65.26992,78.579896 65.311452,78.089059 65.311453,77.844894 C 65.311452,77.784488 65.288798,77.701423 65.243491,77.595699 C 65.200699,77.489986 65.179304,77.406921 65.179304,77.346505 C 65.179304,77.220654 65.24349,77.125004 65.371864,77.059553 C 65.472548,77.009217 65.590852,76.984046 65.726777,76.98404 C 65.777118,76.984046 65.852632,76.98908 65.953318,76.999143 C 66.056518,77.0067 66.13329,77.010475 66.183634,77.01047 L 67.999733,77.014245 C 68.045038,77.014251 68.141947,77.0067 68.29046,76.991591 C 68.438966,76.976494 68.537133,76.968943 68.584962,76.968937 C 68.720883,76.968943 68.832894,77.012993 68.920997,77.101086 C 69.009092,77.186673 69.053142,77.297426 69.053146,77.433345 C 69.053142,77.8084 68.671799,77.995925 67.909117,77.995921 C 67.848703,77.995925 67.771931,77.994667 67.678801,77.992145 C 67.588182,77.989633 67.527771,77.988374 67.497568,77.988369 L 66.372417,77.988369 C 66.364864,78.141918 66.333401,78.396146 66.278026,78.751055 C 66.607766,78.589964 67.001694,78.509417 67.459811,78.509412 C 68.071467,78.509417 68.535875,78.737215 68.853035,79.192809 C 69.117328,79.567863 69.249476,80.039822 69.249481,80.608687 C 69.249476,81.293344 69.038039,81.859695 68.615168,82.30774 C 68.174669,82.775924 67.591957,83.010015 66.867031,83.010016"
         id="text11652" />
      <path
         transform="scale(0.997935,1.00207)"
         style="font-size:7.73258018px;font-style:normal;font-variant:normal;font-weight:bold;font-stretch:normal;text-align:start;line-height:125%;writing-mode:lr-tb;text-anchor:start;fill:#000000;fill-opacity:1;stroke:none;stroke-width:1px;stroke-linecap:butt;stroke-linejoin:miter;stroke-opacity:1;font-family:Comic Sans MS"
         d="M 50.410738,87.413305 C 49.698392,87.413305 49.172316,87.161594 48.832506,86.65817 C 48.560657,86.255433 48.424733,85.726839 48.424733,85.072387 C 48.424733,83.846555 48.945776,82.784333 49.987862,81.885719 C 50.11875,81.759868 50.24964,81.635271 50.380533,81.511927 C 50.56428,81.34832 50.716565,81.266514 50.837389,81.266508 C 50.975828,81.266514 51.097908,81.314339 51.203629,81.409984 C 51.309345,81.503123 51.364722,81.616393 51.369759,81.749794 C 51.37479,81.875655 51.231315,82.078283 50.939332,82.357678 C 50.730409,82.548983 50.522747,82.739025 50.316346,82.927805 C 50.084769,83.154349 49.917381,83.375855 49.814181,83.592323 C 49.950104,83.539467 50.07596,83.500452 50.191749,83.475277 C 50.310051,83.45011 50.418287,83.437524 50.516457,83.43752 C 51.145733,83.437524 51.632794,83.602395 51.977643,83.932134 C 52.322483,84.259362 52.494906,84.716218 52.49491,85.302703 C 52.494906,85.911847 52.312415,86.411494 51.947437,86.801646 C 51.562315,87.209419 51.050082,87.413305 50.410738,87.413305 M 50.410738,84.456952 C 50.224469,84.456955 50.057081,84.48716 49.908573,84.547569 C 49.830541,84.580294 49.687065,84.659583 49.478146,84.785436 C 49.468077,84.88864 49.463042,84.98429 49.463044,85.072387 C 49.463042,85.548124 49.54359,85.905554 49.704687,86.144679 C 49.865781,86.381288 50.107423,86.499593 50.429616,86.499592 C 50.759356,86.499593 51.014843,86.38884 51.196078,86.167333 C 51.369756,85.955896 51.456596,85.667687 51.4566,85.302703 C 51.456596,85.020789 51.369756,84.809351 51.196078,84.66839 C 51.022394,84.527434 50.760614,84.456955 50.410738,84.456952"
         id="text11656" />
      <path
         transform="scale(0.997935,1.00207)"
         style="font-size:7.73258018px;font-style:normal;font-variant:normal;font-weight:bold;font-stretch:normal;text-align:start;line-height:125%;writing-mode:lr-tb;text-anchor:start;fill:#000000;fill-opacity:1;stroke:none;stroke-width:1px;stroke-linecap:butt;stroke-linejoin:miter;stroke-opacity:1;font-family:Comic Sans MS"
         d="M 34.4152,77.633772 C 34.13328,77.631259 33.608462,77.619932 32.840744,77.599791 C 32.649442,77.599796 32.363749,77.590986 31.983666,77.573361 C 31.648889,77.545678 31.481501,77.383324 31.481501,77.086299 C 31.481501,76.947863 31.531843,76.832076 31.632528,76.738937 C 31.733212,76.64581 31.856551,76.599243 32.002544,76.599237 C 32.3197,76.599243 32.795434,76.609311 33.429749,76.629443 C 34.066576,76.647068 34.543569,76.655878 34.860729,76.655872 L 35.551678,76.655872 C 35.687597,76.655878 35.80716,76.682308 35.910367,76.735161 C 36.038735,76.800612 36.102921,76.897521 36.102926,77.025888 C 36.102921,77.164335 36.027408,77.329206 35.876385,77.520502 C 35.750525,77.661465 35.623411,77.802423 35.495042,77.943377 C 35.175365,78.298294 34.879604,78.733755 34.607759,79.24976 C 34.522174,79.410859 34.296892,79.882817 33.931913,80.665638 C 33.884086,80.768841 33.777108,81.050758 33.610981,81.511389 C 33.485123,81.858751 33.35675,82.1306 33.225862,82.326935 C 33.125176,82.47041 32.985476,82.542148 32.806763,82.542148 C 32.66832,82.542148 32.544981,82.495581 32.436747,82.402448 C 32.32851,82.309315 32.274392,82.193528 32.274393,82.055086 C 32.274392,81.94685 32.358715,81.695139 32.527363,81.299951 C 32.79921,80.66564 33.069799,80.031327 33.339133,79.397012 C 33.686492,78.656983 34.045181,78.069237 34.4152,77.633772"
         id="text11660" />
      <path
         transform="scale(0.997935,1.00207)"
         style="font-size:7.73258018px;font-style:normal;font-variant:normal;font-weight:bold;font-stretch:normal;text-align:start;line-height:125%;writing-mode:lr-tb;text-anchor:start;fill:#000000;fill-opacity:1;stroke:none;stroke-width:1px;stroke-linecap:butt;stroke-linejoin:miter;stroke-opacity:1;font-family:Comic Sans MS"
         d="M 21.487886,70.515936 C 20.929085,70.515936 20.47097,70.397632 20.113541,70.161023 C 19.698216,69.884141 19.486779,69.480144 19.479228,68.949032 C 19.466642,68.206484 19.710802,67.674115 20.211708,67.351922 C 19.846726,67.062456 19.664235,66.698734 19.664236,66.260752 C 19.664235,65.764884 19.853019,65.353336 20.230587,65.026106 C 20.590533,64.71399 21.024735,64.555411 21.533194,64.550371 C 22.134782,64.545343 22.585345,64.70518 22.884886,65.029882 C 23.141627,65.311804 23.27,65.696922 23.270004,66.185238 C 23.27,66.459608 23.220916,66.679855 23.122753,66.845981 C 23.03465,66.994494 22.887399,67.12916 22.680999,67.249978 C 22.988083,67.421145 23.208331,67.619997 23.341742,67.846535 C 23.495282,68.098249 23.572054,68.429249 23.572058,68.839537 C 23.572054,69.378201 23.361875,69.799817 22.941521,70.104388 C 22.561433,70.378753 22.076888,70.515936 21.487886,70.515936 M 21.521867,65.479187 C 20.970617,65.479192 20.69751,65.738455 20.702546,66.256976 C 20.705062,66.516243 20.942929,66.706285 21.416148,66.827103 C 21.680443,66.75411 21.862934,66.687407 21.963621,66.626992 C 22.142333,66.51876 22.231691,66.371509 22.231694,66.185238 C 22.231691,65.903326 22.17128,65.710767 22.050462,65.60756 C 21.949774,65.521983 21.773576,65.479192 21.521867,65.479187 M 21.465232,67.767246 C 21.102766,67.925826 20.86364,68.065526 20.747854,68.186345 C 20.579206,68.354994 20.499917,68.595379 20.509987,68.907499 C 20.517537,69.151661 20.635841,69.33541 20.8649,69.458748 C 21.043613,69.554399 21.251275,69.602224 21.487886,69.602223 C 21.883071,69.602224 22.154919,69.519159 22.303432,69.353029 C 22.419216,69.22214 22.477109,69.013219 22.477113,68.726267 C 22.477109,68.467006 22.375166,68.256827 22.171283,68.095729 C 22.017736,67.97491 21.782386,67.865416 21.465232,67.767246"
         id="text11664" />
      <path
         transform="scale(0.997935,1.00207)"
         style="font-size:7.73258018px;font-style:normal;font-variant:normal;font-weight:bold;font-stretch:normal;text-align:start;line-height:125%;writing-mode:lr-tb;text-anchor:start;fill:#000000;fill-opacity:1;stroke:none;stroke-width:1px;stroke-linecap:butt;stroke-linejoin:miter;stroke-opacity:1;font-family:Comic Sans MS"
         d="M 17.062237,51.588602 C 16.90869,51.641464 16.767732,51.681737 16.639361,51.709424 C 16.513503,51.734597 16.400233,51.747182 16.299551,51.74718 C 15.793609,51.747182 15.351855,51.611258 14.974289,51.339408 C 14.511139,51.007151 14.279565,50.532675 14.279565,49.915979 C 14.279565,49.201122 14.516174,48.661201 14.989392,48.296214 C 15.387095,47.989132 15.904362,47.835588 16.541194,47.835582 C 17.047131,47.835588 17.497694,48.030664 17.892885,48.420812 C 18.308205,48.828589 18.517125,49.321944 18.519647,49.900876 C 18.52216,50.530158 18.40008,51.140558 18.153407,51.732078 C 17.886588,52.373944 17.521607,52.858488 17.058461,53.185712 C 16.86464,53.321637 16.561328,53.483991 16.148524,53.672774 C 15.675304,53.886729 15.340528,53.993706 15.144194,53.993706 C 14.995684,53.993706 14.872345,53.940847 14.774178,53.835128 C 14.683562,53.73696 14.638254,53.622432 14.638254,53.491542 C 14.638254,53.290173 14.759075,53.136629 15.000719,53.03091 C 15.207121,52.965465 15.413525,52.898762 15.619929,52.830799 C 15.987426,52.689841 16.275636,52.530005 16.484559,52.351288 C 16.695994,52.170057 16.888553,51.915829 17.062237,51.588602 M 16.431699,48.737968 C 16.059164,48.737973 15.779765,48.831106 15.5935,49.017368 C 15.407232,49.201122 15.31284,49.479263 15.310324,49.851792 C 15.310323,50.15385 15.419817,50.3892 15.638808,50.557843 C 15.837658,50.708873 16.094404,50.784386 16.409045,50.784384 C 16.534899,50.784386 16.683408,50.745371 16.854575,50.667338 C 17.028253,50.58931 17.224588,50.472264 17.44358,50.3162 C 17.468748,50.140005 17.481333,50.001564 17.481337,49.900876 C 17.478816,49.636583 17.359253,49.374803 17.122648,49.115536 C 16.888553,48.863829 16.658237,48.737973 16.431699,48.737968"
         id="text11668" />
      <path
         transform="scale(0.997935,1.00207)"
         style="font-size:7.73258018px;font-style:normal;font-variant:normal;font-weight:bold;font-stretch:normal;text-align:start;line-height:125%;writing-mode:lr-tb;text-anchor:start;fill:#000000;fill-opacity:1;stroke:none;stroke-width:1px;stroke-linecap:butt;stroke-linejoin:miter;stroke-opacity:1;font-family:Comic Sans MS"
         d="M 48.746083,20.732205 L 47.24714,20.72843 C 46.771404,20.72843 46.533537,20.578662 46.533538,20.279125 C 46.533537,19.941832 46.799093,19.773185 47.330205,19.773184 C 47.380546,19.773185 47.435922,19.774444 47.496335,19.77696 L 47.496335,16.427937 C 47.277344,16.578968 47.135127,16.654482 47.069684,16.654478 C 46.928724,16.654482 46.805385,16.604139 46.699668,16.503451 C 46.596465,16.40277 46.544864,16.285725 46.544865,16.152313 C 46.544864,16.013876 46.629187,15.871659 46.797835,15.725662 L 47.224486,15.416057 L 47.685119,15.046041 C 47.8739,14.910122 48.056391,14.84216 48.232591,14.842154 C 48.459129,14.84216 48.572399,14.978084 48.572402,15.249927 C 48.572399,15.549469 48.559813,15.971085 48.534645,16.514778 C 48.509471,17.058478 48.496886,17.835008 48.496888,18.844369 L 48.496888,19.758082 L 48.746083,19.758082 C 48.892072,19.758083 49.014152,19.804649 49.112323,19.897782 C 49.213004,19.990916 49.263347,20.106703 49.26335,20.245144 C 49.263347,20.383585 49.213004,20.499372 49.112323,20.592506 C 49.014152,20.685639 48.892072,20.732205 48.746083,20.732205"
         id="text13576" />
      <path
         transform="scale(0.997935,1.00207)"
         style="font-size:7.73258018px;font-style:normal;font-variant:normal;font-weight:bold;font-stretch:normal;text-align:start;line-height:125%;writing-mode:lr-tb;text-anchor:start;fill:#000000;fill-opacity:1;stroke:none;stroke-width:1px;stroke-linecap:butt;stroke-linejoin:miter;stroke-opacity:1;font-family:Comic Sans MS"
         d="M 54.175741,20.72843 C 54.112809,20.72843 54.014642,20.718361 53.881238,20.698225 C 53.750345,20.675571 53.655953,20.664244 53.598063,20.664243 L 52.488015,20.660468 C 52.392362,20.660468 52.247628,20.673053 52.053812,20.698225 C 51.859993,20.720879 51.714,20.732206 51.615834,20.732206 C 51.588145,20.732206 51.547871,20.727171 51.495012,20.717103 C 51.442152,20.707034 51.401878,20.702 51.374191,20.702 C 51.14765,20.702 50.994106,20.610126 50.913559,20.426376 C 50.863216,20.310589 50.838045,20.131874 50.838045,19.89023 C 50.838045,19.419531 50.942505,19.025603 51.151426,18.708444 C 51.312521,18.464286 51.573042,18.220126 51.932991,17.975964 C 52.272799,17.751943 52.611351,17.529179 52.948647,17.307669 C 53.346348,17.018205 53.5452,16.689721 53.545203,16.322218 C 53.5452,16.226573 53.465911,16.132181 53.307336,16.039043 C 53.148755,15.943397 52.993952,15.895572 52.842928,15.895567 C 52.576112,15.895572 52.292936,16.015135 51.993401,16.254256 C 51.69638,16.490869 51.492494,16.609174 51.381742,16.60917 C 51.248334,16.609174 51.131288,16.576451 51.030605,16.511002 C 50.904748,16.430459 50.84182,16.318447 50.841821,16.174967 C 50.84182,16.021428 50.904748,15.889279 51.030605,15.778521 C 51.335175,15.509195 51.60073,15.31286 51.827272,15.189516 C 52.154495,15.010807 52.493047,14.921449 52.842928,14.921443 C 53.278386,14.921449 53.671056,15.035978 54.020938,15.26503 C 54.421156,15.526815 54.621266,15.869142 54.62127,16.292013 C 54.621266,16.719927 54.523099,17.08365 54.326768,17.383183 C 54.17322,17.622312 53.930319,17.855145 53.598063,18.081683 C 53.28342,18.280537 52.968781,18.478131 52.654144,18.674463 C 52.17589,18.986587 51.919145,19.342759 51.883907,19.742979 C 52.022347,19.72536 52.226233,19.705223 52.495566,19.682568 C 53.031709,19.654881 53.415569,19.641037 53.647147,19.641036 C 53.863615,19.641037 54.07757,19.687604 54.289011,19.780736 C 54.550787,19.896524 54.681677,20.045034 54.681681,20.226265 C 54.681677,20.357156 54.63511,20.471684 54.541981,20.569852 C 54.44381,20.675571 54.32173,20.72843 54.175741,20.72843"
         id="text13586" />
      <path
         transform="scale(0.997935,1.00207)"
         style="font-size:7.73258018px;font-style:normal;font-variant:normal;font-weight:bold;font-stretch:normal;text-align:start;line-height:125%;writing-mode:lr-tb;text-anchor:start;fill:#000000;fill-opacity:1;stroke:none;stroke-width:1px;stroke-linecap:butt;stroke-linejoin:miter;stroke-opacity:1;font-family:Comic Sans MS"
         d="M 25.023085,37.787361 C 24.189918,37.787361 23.585811,37.427414 23.210762,36.707519 C 22.933879,36.173891 22.795437,35.485461 22.795438,34.642225 C 22.795437,33.922333 22.977928,33.290538 23.34291,32.746837 C 23.780887,32.094909 24.37996,31.768943 25.140131,31.768937 C 25.860023,31.768943 26.418822,32.05967 26.81653,32.641118 C 27.151302,33.13196 27.31869,33.72474 27.318695,34.41946 C 27.31869,35.542096 27.12739,36.38407 26.744792,36.945386 C 26.362187,37.506703 25.788285,37.787361 25.023085,37.787361 M 25.136355,32.750612 C 24.728581,32.750617 24.401356,32.953245 24.15468,33.358496 C 23.938207,33.710896 23.829971,34.119927 23.829972,34.58559 C 23.829971,35.199769 23.887865,35.672986 24.003653,36.005243 C 24.189918,36.54139 24.529729,36.809463 25.023085,36.809462 C 25.435889,36.809463 25.745494,36.621938 25.951901,36.246886 C 26.158301,35.869321 26.261503,35.304229 26.261506,34.551609 C 26.261503,33.950022 26.167111,33.499458 25.978331,33.199917 C 25.792061,32.900385 25.511403,32.750617 25.136355,32.750612"
         id="text12675" />
      <path
         transform="scale(0.997935,1.00207)"
         style="font-size:7.73258018px;font-style:normal;font-variant:normal;font-weight:bold;font-stretch:normal;text-align:start;line-height:125%;writing-mode:lr-tb;text-anchor:start;fill:#000000;fill-opacity:1;stroke:none;stroke-width:1px;stroke-linecap:butt;stroke-linejoin:miter;stroke-opacity:1;font-family:Comic Sans MS"
         d="M 21.088713,37.787356 L 19.589771,37.783581 C 19.114035,37.783581 18.876167,37.633813 18.876168,37.334276 C 18.876167,36.996983 19.141723,36.828336 19.672836,36.828335 C 19.723176,36.828336 19.778553,36.829595 19.838965,36.832111 L 19.838965,33.483088 C 19.619975,33.634119 19.477758,33.709633 19.412314,33.709629 C 19.271354,33.709633 19.148016,33.65929 19.042298,33.558602 C 18.939095,33.457921 18.887494,33.340876 18.887495,33.207464 C 18.887494,33.069027 18.971818,32.92681 19.140466,32.780813 L 19.567117,32.471208 L 20.027749,32.101192 C 20.21653,31.965273 20.399021,31.897311 20.575222,31.897305 C 20.801759,31.897311 20.915029,32.033235 20.915032,32.305078 C 20.915029,32.60462 20.902444,33.026236 20.877276,33.569929 C 20.852102,34.113629 20.839516,34.890159 20.839519,35.899519 L 20.839519,36.813233 L 21.088713,36.813233 C 21.234703,36.813234 21.356783,36.8598 21.454954,36.952933 C 21.555635,37.046067 21.605977,37.161854 21.605981,37.300295 C 21.605977,37.438736 21.555635,37.554523 21.454954,37.647657 C 21.356783,37.74079 21.234703,37.787356 21.088713,37.787356"
         id="text13596" />
      <path
         transform="scale(0.997935,1.00207)"
         style="font-size:7.73258018px;font-style:normal;font-variant:normal;font-weight:bold;font-stretch:normal;text-align:start;line-height:125%;writing-mode:lr-tb;text-anchor:start;fill:#000000;fill-opacity:1;stroke:none;stroke-width:1px;stroke-linecap:butt;stroke-linejoin:miter;stroke-opacity:1;font-family:Comic Sans MS"
         d="M 38.590905,25.28715 L 37.091962,25.283375 C 36.616226,25.283375 36.378359,25.133607 36.37836,24.83407 C 36.378359,24.496777 36.643914,24.32813 37.175027,24.328129 C 37.225368,24.32813 37.280744,24.329389 37.341157,24.331905 L 37.341157,20.982882 C 37.122166,21.133913 36.979949,21.209427 36.914506,21.209423 C 36.773546,21.209427 36.650207,21.159084 36.54449,21.058396 C 36.441287,20.957715 36.389686,20.84067 36.389687,20.707258 C 36.389686,20.568821 36.474009,20.426604 36.642657,20.280607 L 37.069308,19.971002 L 37.52994,19.600986 C 37.718722,19.465067 37.901213,19.397105 38.077413,19.397099 C 38.303951,19.397105 38.417221,19.533029 38.417224,19.804872 C 38.417221,20.104414 38.404635,20.52603 38.379467,21.069723 C 38.354293,21.613423 38.341708,22.389953 38.34171,23.399314 L 38.34171,24.313027 L 38.590905,24.313027 C 38.736894,24.313028 38.858974,24.359594 38.957145,24.452727 C 39.057826,24.545861 39.108169,24.661648 39.108172,24.800089 C 39.108169,24.93853 39.057826,25.054317 38.957145,25.147451 C 38.858974,25.240584 38.736894,25.28715 38.590905,25.28715"
         id="text13616" />
      <path
         transform="scale(0.997935,1.00207)"
         style="font-size:7.73258018px;font-style:normal;font-variant:normal;font-weight:bold;font-stretch:normal;text-align:start;line-height:125%;writing-mode:lr-tb;text-anchor:start;fill:#000000;fill-opacity:1;stroke:none;stroke-width:1px;stroke-linecap:butt;stroke-linejoin:miter;stroke-opacity:1;font-family:Comic Sans MS"
         d="M 33.864977,25.28715 L 32.366035,25.283375 C 31.890299,25.283375 31.652432,25.133607 31.652433,24.83407 C 31.652432,24.496777 31.917987,24.32813 32.4491,24.328129 C 32.49944,24.32813 32.554817,24.329389 32.615229,24.331905 L 32.615229,20.982882 C 32.396239,21.133913 32.254022,21.209427 32.188578,21.209423 C 32.047618,21.209427 31.92428,21.159084 31.818562,21.058396 C 31.71536,20.957715 31.663759,20.84067 31.66376,20.707258 C 31.663759,20.568821 31.748082,20.426604 31.91673,20.280607 L 32.343381,19.971002 L 32.804013,19.600986 C 32.992795,19.465067 33.175285,19.397105 33.351486,19.397099 C 33.578023,19.397105 33.691294,19.533029 33.691296,19.804872 C 33.691294,20.104414 33.678708,20.52603 33.65354,21.069723 C 33.628366,21.613423 33.61578,22.389953 33.615783,23.399314 L 33.615783,24.313027 L 33.864977,24.313027 C 34.010967,24.313028 34.133047,24.359594 34.231218,24.452727 C 34.331899,24.545861 34.382241,24.661648 34.382245,24.800089 C 34.382241,24.93853 34.331899,25.054317 34.231218,25.147451 C 34.133047,25.240584 34.010967,25.28715 33.864977,25.28715"
         id="text13626" />
    </g>
<!-- clock-face-shadow-->    <g
       inkscape:label="Ebene 1"
       inkscape:groupmode="layer"
       id="layer-clock-face-shadow" />

<!-- clock-frame-->    <g
       inkscape:label="Ebene 1"
       inkscape:groupmode="layer"
       id="layer-clock-frame">
      <path
         transform="matrix(0,-2.330758,3.427043,0,-28.62242,117.8634)"
         d="M 47.791164 22.941767 A 18.674698 12.700803 0 1 1  10.441769,22.941767 A 18.674698 12.700803 0 1 1  47.791164 22.941767 z"
         sodipodi:ry="12.700803"
         sodipodi:rx="18.674698"
         sodipodi:cy="22.941767"
         sodipodi:cx="29.116467"
         id="path2230"
         style="opacity:1;fill:none;fill-opacity:1.0;fill-rule:nonzero;stroke:url(#radialGradient3416);stroke-width:3.53827539;stroke-linecap:square;stroke-linejoin:miter;stroke-miterlimit:4;stroke-dasharray:none;stroke-dashoffset:0;stroke-opacity:1"
         sodipodi:type="arc" />
      <path
         sodipodi:type="arc"
         style="opacity:1;fill:none;fill-opacity:1;fill-rule:nonzero;stroke:url(#radialGradient3420);stroke-width:0.79237956;stroke-linecap:square;stroke-linejoin:miter;stroke-miterlimit:4;stroke-dasharray:none;stroke-dashoffset:0;stroke-opacity:1"
         id="path3418"
         sodipodi:cx="29.116467"
         sodipodi:cy="22.941767"
         sodipodi:rx="18.674698"
         sodipodi:ry="12.700803"
         d="M 47.791164 22.941767 A 18.674698 12.700803 0 1 1  10.441769,22.941767 A 18.674698 12.700803 0 1 1  47.791164 22.941767 z"
         transform="matrix(0,-2.088573,3.050309,0,-19.66042,110.7617)" />
    </g>
<g id="hands" transform="rotate(0,50,50)">
   <g id="hand_shadows" transform="translate(0.75,-0.75)">
<!-- clock-hour-hand-shadow-->    <g
       inkscape:label="Ebene 1"
       inkscape:groupmode="layer"
       id="layer-clock-hour-hand-shadow"
       >
      <rect
         style="opacity:0.7;fill:#d2d2d2;fill-opacity:0.12000002;fill-rule:nonzero;stroke:#404040;stroke-width:0.19999936;stroke-linecap:round;stroke-linejoin:round;stroke-miterlimit:4;stroke-dasharray:none;stroke-dashoffset:0;stroke-opacity:0.23921569"
         id="rect5539"
         width="14.48233"
         height="1.4601998"
         x="48.903831"
         y="49.256741"
         ry="0.40147269" />
    </g>

<!-- clock-minute-hand-shadow-->    <g
       inkscape:label="Ebene 1"
       inkscape:groupmode="layer"
       id="layer-clock-minute-hand-shadow"
       >
      <rect
         style="opacity:0.7;fill:#ececec;fill-opacity:0.12156863;fill-rule:nonzero;stroke:#404040;stroke-width:0.20000002;stroke-linecap:round;stroke-linejoin:round;stroke-miterlimit:4;stroke-dasharray:none;stroke-dashoffset:0;stroke-opacity:0.23921569"
         id="rect7367"
         width="34.992199"
         height="1.1966953"
         x="41.968147"
         y="49.404221"
         ry="0.42990518" />
    </g>

<!-- clock-second-hand-shadow-->    <g
       inkscape:label="Ebene 1"
       inkscape:groupmode="layer"
       id="layer-clock-second-hand-shadow"
       >
      <rect
         style="opacity:0.7;fill:#ececec;fill-opacity:0.12156863;fill-rule:nonzero;stroke:#404040;stroke-width:0.19999991;stroke-linecap:round;stroke-linejoin:round;stroke-miterlimit:4;stroke-dasharray:none;stroke-dashoffset:0;stroke-opacity:0.23921569"
         id="rect8364"
         width="46.885391"
         height="0.56271237"
         x="39.959839"
         y="49.718578"
         ry="0.23039472" />
      <path
         sodipodi:type="arc"
         style="opacity:1;fill:#949494;fill-opacity:0.23921569;fill-rule:nonzero;stroke:none;stroke-width:2.5;stroke-linecap:square;stroke-linejoin:round;stroke-miterlimit:4;stroke-dasharray:none;stroke-dashoffset:0;stroke-opacity:1"
         id="path1331"
         sodipodi:cx="-6.1588159"
         sodipodi:cy="5.0287085"
         sodipodi:rx="1.8437219"
         sodipodi:ry="1.8437219"
         d="M -4.315094 5.0287085 A 1.8437219 1.8437219 0 1 1  -8.0025377,5.0287085 A 1.8437219 1.8437219 0 1 1  -4.315094 5.0287085 z"
         transform="matrix(0.756146,0,0,0.756146,54.658387,46.199207)" />
    </g></g>
<!-- clock-hour-hand-->    <g
       inkscape:label="Ebene 1"
       inkscape:groupmode="layer"
       id="layer-clock-hour-hand"
       >
      <rect
         style="opacity:1;fill:#ffd9d9;fill-opacity:1;fill-rule:nonzero;stroke:#404040;stroke-width:0.1999993;stroke-linecap:round;stroke-linejoin:round;stroke-miterlimit:4;stroke-dasharray:none;stroke-dashoffset:0;stroke-opacity:1"
         id="rect205"
         width="23.852005"
         height="4.0716925"
         x="47.69754"
         y="47.960052"
         ry="1.119486" />
    </g>
<!-- clock-minute-hand-->    <g
       inkscape:label="Ebene 1"
       inkscape:groupmode="layer"
       id="layer-clock-minute-hand"
       >
      <rect
         style="opacity:1;fill:#d9ffdc;fill-opacity:1;fill-rule:nonzero;stroke:#404040;stroke-width:0.19999994;stroke-linecap:round;stroke-linejoin:round;stroke-miterlimit:4;stroke-dasharray:none;stroke-dashoffset:0;stroke-opacity:1"
         id="rect210"
         width="29.830471"
         height="2.6728752"
         x="46.283535"
         y="48.66613"
         ry="0.96021342" />
    </g>
<!-- clock-second-hand-->    <g
       inkscape:label="Ebene 1"
       inkscape:groupmode="layer"
       id="layer-clock-second-hand"
       >
      <rect
         style="opacity:1;fill:#d9ebff;fill-opacity:1;fill-rule:nonzero;stroke:#404040;stroke-width:0.19999993;stroke-linecap:round;stroke-linejoin:round;stroke-miterlimit:4;stroke-dasharray:none;stroke-dashoffset:0;stroke-opacity:1"
         id="rect216"
         width="42.523842"
         height="1.9756045"
         x="41.256588"
         y="49.028004"
         ry="0.80888367" />
      <path
         sodipodi:type="arc"
         style="opacity:1;fill:#6393c4;fill-opacity:1;fill-rule:nonzero;stroke:none;stroke-width:2.5;stroke-linecap:square;stroke-linejoin:round;stroke-miterlimit:4;stroke-dasharray:none;stroke-dashoffset:0;stroke-opacity:1"
         id="path218"
         sodipodi:cx="-6.1588159"
         sodipodi:cy="5.0287085"
         sodipodi:rx="1.8437219"
         sodipodi:ry="1.8437219"
         d="M -4.315094 5.0287085 A 1.8437219 1.8437219 0 1 1  -8.0025377,5.0287085 A 1.8437219 1.8437219 0 1 1  -4.315094 5.0287085 z"
         transform="matrix(0.756146,0,0,0.756146,54.658387,46.199207)" />
    </g>
</g>
<!-- clock-glass-->    <g
       inkscape:label="Ebene 1"
       inkscape:groupmode="layer"
       id="layer-clock-glass">
      <path
         style="fill:url(#linearGradient10899);fill-opacity:1;fill-rule:evenodd;stroke:url(#radialGradient10901);stroke-width:0.1;stroke-linecap:butt;stroke-linejoin:miter;stroke-miterlimit:4;stroke-dasharray:none;stroke-opacity:1;opacity:0.7"
         d="M 49.027072,10.006125 C 27.403573,10.554118 10.027071,28.269139 10.027071,50.006125 C 10.027071,59.000984 13.005741,67.321976 18.027072,74.006125 C 20.424506,67.58589 22.439099,59.702145 22.495822,51.224875 C 22.56056,37.471611 23.32618,25.338847 39.652072,19.818625 C 42.164953,18.960933 44.956125,16.068626 48.339572,16.068625 C 54.22791,16.068625 56.752264,12.379605 57.589572,10.724875 C 55.155071,10.262293 52.62694,10.006125 50.058322,10.006125 C 49.713006,10.006125 49.370302,9.9974268 49.027072,10.006125 z M 83.464572,27.943625 C 77.295703,34.409552 68.525557,45.044039 65.339572,56.006125 C 61.507581,69.190934 43.603047,81.17768 34.152072,86.724875 C 38.438185,88.585489 43.120039,89.726074 48.027072,89.974875 L 48.527072,89.974875 L 51.620822,89.974875 L 52.120822,89.974875 C 72.242148,88.954669 88.473552,73.069298 89.995822,53.099875 C 90.002272,53.015259 89.9899,52.934637 89.995822,52.849875 L 89.995822,47.193625 C 89.9899,47.108863 90.002272,47.028241 89.995822,46.943625 C 89.463673,39.962789 87.127247,33.465747 83.464572,27.943625 z "
         id="path5566" />
      <path
         sodipodi:type="arc"
         style="opacity:0.7;fill:url(#radialGradient2233);fill-opacity:1.0;fill-rule:nonzero;stroke:none;stroke-width:0.10018083;stroke-linecap:round;stroke-linejoin:round;stroke-miterlimit:4;stroke-dasharray:none;stroke-dashoffset:0;stroke-opacity:1"
         id="path5564"
         sodipodi:cx="50.083191"
         sodipodi:cy="49.916809"
         sodipodi:rx="40.092503"
         sodipodi:ry="40.092503"
         d="M 90.175694 49.916809 A 40.092503 40.092503 0 1 1  9.9906883,49.916809 A 40.092503 40.092503 0 1 1  90.175694 49.916809 z"
         transform="matrix(0.998606,0,0,0.997784,-9.693441e-4,0.182374)" />
    </g>
  </g>
<!-- END--></svg>
